<mxfile host="app.diagrams.net" agent="Mozilla/5.0 (Windows NT 10.0; Win64; x64) AppleWebKit/537.36 (KHTML, like Gecko) Chrome/136.0.0.0 Safari/537.36" version="27.0.6">
  <diagram name="Page-1" id="bZhmBj_Zg0_QXGucStPr">
    <mxGraphModel dx="922" dy="1306" grid="1" gridSize="10" guides="1" tooltips="1" connect="1" arrows="1" fold="1" page="1" pageScale="1" pageWidth="827" pageHeight="1169" math="0" shadow="0">
      <root>
        <mxCell id="0" />
        <mxCell id="1" parent="0" />
        <mxCell id="mxmpO0KWyiML7G2zGZ1m-104" value="" style="rounded=0;whiteSpace=wrap;html=1;fillColor=#fff2cc;strokeColor=#d6b656;" parent="1" vertex="1">
          <mxGeometry x="150" y="360.25" width="220" height="340" as="geometry" />
        </mxCell>
        <mxCell id="mxmpO0KWyiML7G2zGZ1m-103" value="" style="rounded=0;whiteSpace=wrap;html=1;fillColor=#d5e8d4;strokeColor=#82b366;" parent="1" vertex="1">
          <mxGeometry x="650" y="360.25" width="280" height="340" as="geometry" />
        </mxCell>
        <mxCell id="mxmpO0KWyiML7G2zGZ1m-105" value="" style="rounded=0;whiteSpace=wrap;html=1;fillColor=#dae8fc;strokeColor=#6c8ebf;" parent="1" vertex="1">
          <mxGeometry x="370" y="360" width="280" height="340" as="geometry" />
        </mxCell>
        <mxCell id="mxmpO0KWyiML7G2zGZ1m-2" value="" style="sketch=0;outlineConnect=0;fontColor=#232F3E;gradientColor=none;fillColor=#232F3D;strokeColor=none;dashed=0;verticalLabelPosition=bottom;verticalAlign=top;align=center;html=1;fontSize=12;fontStyle=0;aspect=fixed;pointerEvents=1;shape=mxgraph.aws4.user;" parent="1" vertex="1">
          <mxGeometry x="60" y="430" width="50" height="50" as="geometry" />
        </mxCell>
        <mxCell id="mxmpO0KWyiML7G2zGZ1m-3" value="User" style="text;html=1;align=center;verticalAlign=middle;resizable=0;points=[];autosize=1;strokeColor=none;fillColor=none;" parent="1" vertex="1">
          <mxGeometry x="60" y="480" width="50" height="30" as="geometry" />
        </mxCell>
        <mxCell id="mxmpO0KWyiML7G2zGZ1m-65" style="edgeStyle=orthogonalEdgeStyle;rounded=0;orthogonalLoop=1;jettySize=auto;html=1;entryX=0;entryY=0.5;entryDx=0;entryDy=0;" parent="1" edge="1">
          <mxGeometry relative="1" as="geometry">
            <mxPoint x="290" y="450.76666666666677" as="sourcePoint" />
            <mxPoint x="390" y="450.75" as="targetPoint" />
          </mxGeometry>
        </mxCell>
        <mxCell id="mxmpO0KWyiML7G2zGZ1m-4" value="Chat Interface" style="rounded=1;whiteSpace=wrap;html=1;" parent="1" vertex="1">
          <mxGeometry x="200" y="437.5" width="90" height="42.5" as="geometry" />
        </mxCell>
        <mxCell id="mxmpO0KWyiML7G2zGZ1m-9" style="edgeStyle=orthogonalEdgeStyle;rounded=0;orthogonalLoop=1;jettySize=auto;html=1;entryX=0;entryY=0.5;entryDx=0;entryDy=0;" parent="1" target="mxmpO0KWyiML7G2zGZ1m-10" edge="1">
          <mxGeometry relative="1" as="geometry">
            <mxPoint x="601" y="458.75" as="targetPoint" />
            <mxPoint x="571" y="458.76" as="sourcePoint" />
          </mxGeometry>
        </mxCell>
        <mxCell id="mxmpO0KWyiML7G2zGZ1m-66" style="edgeStyle=orthogonalEdgeStyle;rounded=0;orthogonalLoop=1;jettySize=auto;html=1;entryX=1;entryY=0.5;entryDx=0;entryDy=0;" parent="1" edge="1">
          <mxGeometry relative="1" as="geometry">
            <mxPoint x="390" y="466.76666666666677" as="sourcePoint" />
            <mxPoint x="290" y="466.75" as="targetPoint" />
          </mxGeometry>
        </mxCell>
        <mxCell id="mxmpO0KWyiML7G2zGZ1m-8" value="API routes&lt;div&gt;&lt;span style=&quot;font-size: x-small;&quot;&gt;(Next.js)&lt;/span&gt;&lt;/div&gt;" style="rounded=1;whiteSpace=wrap;html=1;" parent="1" vertex="1">
          <mxGeometry x="390" y="437.5" width="180" height="42.5" as="geometry" />
        </mxCell>
        <mxCell id="mxmpO0KWyiML7G2zGZ1m-11" style="edgeStyle=orthogonalEdgeStyle;rounded=0;orthogonalLoop=1;jettySize=auto;html=1;entryX=0.5;entryY=0;entryDx=0;entryDy=0;" parent="1" source="mxmpO0KWyiML7G2zGZ1m-10" edge="1" target="mxmpO0KWyiML7G2zGZ1m-17">
          <mxGeometry relative="1" as="geometry">
            <mxPoint x="730" y="510" as="targetPoint" />
          </mxGeometry>
        </mxCell>
        <mxCell id="mxmpO0KWyiML7G2zGZ1m-10" value="FastAPI Service&lt;div&gt;&lt;span style=&quot;font-size: x-small;&quot;&gt;(main.py)&lt;/span&gt;&lt;/div&gt;" style="rounded=1;whiteSpace=wrap;html=1;" parent="1" vertex="1">
          <mxGeometry x="670" y="437.5" width="120" height="42.5" as="geometry" />
        </mxCell>
        <mxCell id="mxmpO0KWyiML7G2zGZ1m-13" style="edgeStyle=orthogonalEdgeStyle;rounded=0;orthogonalLoop=1;jettySize=auto;html=1;" parent="1" edge="1">
          <mxGeometry relative="1" as="geometry">
            <mxPoint x="831" y="613.88" as="targetPoint" />
            <mxPoint x="791" y="613.93" as="sourcePoint" />
          </mxGeometry>
        </mxCell>
        <mxCell id="mxmpO0KWyiML7G2zGZ1m-15" style="edgeStyle=orthogonalEdgeStyle;rounded=0;orthogonalLoop=1;jettySize=auto;html=1;entryX=1;entryY=0.5;entryDx=0;entryDy=0;" parent="1" edge="1">
          <mxGeometry relative="1" as="geometry">
            <mxPoint x="830" y="627.33" as="sourcePoint" />
            <mxPoint x="790" y="627.88" as="targetPoint" />
          </mxGeometry>
        </mxCell>
        <mxCell id="mxmpO0KWyiML7G2zGZ1m-14" value="&lt;div&gt;&lt;br&gt;&lt;/div&gt;UEA Knowledge&lt;div&gt;base&lt;/div&gt;" style="strokeWidth=2;html=1;shape=mxgraph.flowchart.database;whiteSpace=wrap;" parent="1" vertex="1">
          <mxGeometry x="831" y="590.63" width="90" height="61.25" as="geometry" />
        </mxCell>
        <mxCell id="mxmpO0KWyiML7G2zGZ1m-18" style="edgeStyle=orthogonalEdgeStyle;rounded=0;orthogonalLoop=1;jettySize=auto;html=1;exitX=0;exitY=0.5;exitDx=0;exitDy=0;fillColor=none;" parent="1" edge="1" source="mxmpO0KWyiML7G2zGZ1m-17">
          <mxGeometry relative="1" as="geometry">
            <mxPoint x="530" y="480" as="targetPoint" />
            <mxPoint x="647" y="621.2413793103449" as="sourcePoint" />
            <Array as="points">
              <mxPoint x="530" y="621" />
            </Array>
          </mxGeometry>
        </mxCell>
        <mxCell id="mxmpO0KWyiML7G2zGZ1m-17" value="OpenAI API&lt;div&gt;&lt;span style=&quot;font-size: x-small;&quot;&gt;(chatbot_api.py)&lt;/span&gt;&lt;/div&gt;" style="rounded=1;whiteSpace=wrap;html=1;" parent="1" vertex="1">
          <mxGeometry x="670" y="600" width="120" height="42.5" as="geometry" />
        </mxCell>
        <mxCell id="mxmpO0KWyiML7G2zGZ1m-19" value="User Input" style="text;html=1;align=center;verticalAlign=middle;resizable=0;points=[];autosize=1;strokeColor=none;fillColor=none;" parent="1" vertex="1">
          <mxGeometry x="290" y="423.75" width="80" height="30" as="geometry" />
        </mxCell>
        <mxCell id="mxmpO0KWyiML7G2zGZ1m-25" value="Response" style="text;html=1;align=center;verticalAlign=middle;resizable=0;points=[];autosize=1;strokeColor=none;fillColor=none;" parent="1" vertex="1">
          <mxGeometry x="290" y="460" width="80" height="30" as="geometry" />
        </mxCell>
        <mxCell id="mxmpO0KWyiML7G2zGZ1m-46" style="edgeStyle=orthogonalEdgeStyle;rounded=0;orthogonalLoop=1;jettySize=auto;html=1;exitX=0.333;exitY=-0.005;exitDx=0;exitDy=0;exitPerimeter=0;" parent="1" edge="1" source="mxmpO0KWyiML7G2zGZ1m-54">
          <mxGeometry relative="1" as="geometry">
            <mxPoint x="429.65999999999997" y="510" as="sourcePoint" />
            <mxPoint x="430" y="480" as="targetPoint" />
          </mxGeometry>
        </mxCell>
        <mxCell id="mxmpO0KWyiML7G2zGZ1m-54" value="&lt;div&gt;&lt;br&gt;&lt;/div&gt;&lt;div&gt;&lt;br&gt;&lt;/div&gt;MongoDB&lt;div&gt;&lt;font size=&quot;1&quot;&gt;(Collections: users, conversations and messages)&lt;/font&gt;&lt;/div&gt;" style="strokeWidth=2;html=1;shape=mxgraph.flowchart.database;whiteSpace=wrap;" parent="1" vertex="1">
          <mxGeometry x="390" y="582.5" width="120" height="97.5" as="geometry" />
        </mxCell>
        <mxCell id="mxmpO0KWyiML7G2zGZ1m-67" value="Frontend" style="text;html=1;align=center;verticalAlign=middle;resizable=0;points=[];autosize=1;strokeColor=none;fillColor=none;" parent="1" vertex="1">
          <mxGeometry x="150" y="360.25" width="70" height="30" as="geometry" />
        </mxCell>
        <mxCell id="mxmpO0KWyiML7G2zGZ1m-77" style="edgeStyle=orthogonalEdgeStyle;rounded=0;orthogonalLoop=1;jettySize=auto;html=1;entryX=0.667;entryY=0.015;entryDx=0;entryDy=0;entryPerimeter=0;" parent="1" edge="1" target="mxmpO0KWyiML7G2zGZ1m-54">
          <mxGeometry relative="1" as="geometry">
            <mxPoint x="470" y="480.0067114093961" as="sourcePoint" />
            <mxPoint x="470.34000000000003" y="510.0067114093961" as="targetPoint" />
          </mxGeometry>
        </mxCell>
        <mxCell id="mxmpO0KWyiML7G2zGZ1m-85" value="Backend (API routes)" style="text;html=1;align=center;verticalAlign=middle;resizable=0;points=[];autosize=1;strokeColor=none;fillColor=none;" parent="1" vertex="1">
          <mxGeometry x="370" y="360" width="140" height="30" as="geometry" />
        </mxCell>
        <mxCell id="mxmpO0KWyiML7G2zGZ1m-86" value="Backend (Python Service)" style="text;html=1;align=center;verticalAlign=middle;resizable=0;points=[];autosize=1;strokeColor=none;fillColor=none;" parent="1" vertex="1">
          <mxGeometry x="648" y="360" width="160" height="30" as="geometry" />
        </mxCell>
        <mxCell id="mxmpO0KWyiML7G2zGZ1m-100" style="edgeStyle=orthogonalEdgeStyle;rounded=0;orthogonalLoop=1;jettySize=auto;html=1;exitX=-0.033;exitY=0.351;exitDx=0;exitDy=0;exitPerimeter=0;" parent="1" edge="1" target="mxmpO0KWyiML7G2zGZ1m-2">
          <mxGeometry relative="1" as="geometry">
            <mxPoint x="199.02999999999997" y="449.41750000000013" as="sourcePoint" />
            <mxPoint x="69.7272727272728" y="446.80769230769226" as="targetPoint" />
            <Array as="points">
              <mxPoint x="100" y="450" />
              <mxPoint x="100" y="450" />
            </Array>
          </mxGeometry>
        </mxCell>
        <mxCell id="mxmpO0KWyiML7G2zGZ1m-101" style="edgeStyle=orthogonalEdgeStyle;rounded=0;orthogonalLoop=1;jettySize=auto;html=1;entryX=-0.023;entryY=0.665;entryDx=0;entryDy=0;entryPerimeter=0;" parent="1" edge="1" target="mxmpO0KWyiML7G2zGZ1m-4">
          <mxGeometry relative="1" as="geometry">
            <mxPoint x="110" y="466" as="sourcePoint" />
            <mxPoint x="109.99999999999989" y="465" as="targetPoint" />
          </mxGeometry>
        </mxCell>
        <mxCell id="T2DmniH7_m8WD-wxYls0-2" value="Generate Response" style="text;html=1;align=center;verticalAlign=middle;resizable=0;points=[];autosize=1;strokeColor=none;fillColor=none;" vertex="1" parent="1">
          <mxGeometry x="526" y="597" width="130" height="30" as="geometry" />
        </mxCell>
        <mxCell id="T2DmniH7_m8WD-wxYls0-5" value="Interact with the model" style="text;html=1;align=center;verticalAlign=middle;resizable=0;points=[];autosize=1;strokeColor=none;fillColor=none;" vertex="1" parent="1">
          <mxGeometry x="730" y="515.25" width="140" height="30" as="geometry" />
        </mxCell>
      </root>
    </mxGraphModel>
  </diagram>
</mxfile>
